<?xml version="1.0" encoding="UTF-8"?>
<svg version="1.1" xmlns="http://www.w3.org/2000/svg" width="1024" height="1024">
<path d="M0 0 C337.92 0 675.84 0 1024 0 C1024 337.92 1024 675.84 1024 1024 C686.08 1024 348.16 1024 0 1024 C0 686.08 0 348.16 0 0 Z " fill="#141923" transform="translate(0,0)"/>
<path d="M0 0 C0.95213882 -0.0049649 1.90427765 -0.00992981 2.88526917 -0.01504517 C6.02711724 -0.02961607 9.16891473 -0.03646239 12.31079102 -0.04199219 C13.38982256 -0.04481956 14.4688541 -0.04764694 15.58058357 -0.05056 C21.29721444 -0.06553676 27.0138202 -0.07477418 32.73046875 -0.07910156 C38.60073387 -0.08456613 44.47076469 -0.10855594 50.34095669 -0.13707352 C54.88380066 -0.15581901 59.42658971 -0.16091193 63.96946907 -0.16243744 C66.13134089 -0.16544059 68.2932123 -0.17338877 70.4550457 -0.18662262 C82.49644632 -0.25503929 93.6800172 0.12317697 105.37719727 3.16113281 C106.16121918 3.35315781 106.94524109 3.5451828 107.75302124 3.74302673 C133.75025259 10.45971222 157.38130619 27.22246673 171.34204102 50.35986328 C177.7263601 61.46918078 181.88645752 72.59485829 184.37719727 85.16113281 C184.66336914 86.51078125 184.66336914 86.51078125 184.95532227 87.88769531 C188.35490552 114.26594314 183.11573883 142.21502978 167.32641602 163.98925781 C165.39060489 166.4245155 163.39905109 168.79725232 161.37719727 171.16113281 C160.61407227 172.17175781 159.85094727 173.18238281 159.06469727 174.22363281 C154.93258757 178.74012481 150.20552029 182.41524634 145.37719727 186.16113281 C144.20157227 187.09505859 144.20157227 187.09505859 143.00219727 188.04785156 C131.22330253 196.90191939 117.58383118 201.05968456 103.37719727 204.16113281 C102.04293195 204.49071582 100.7093696 204.82318937 99.37719727 205.16113281 C100.06624146 205.84573578 100.75528564 206.53033875 101.46520996 207.23568726 C107.94551818 213.6755222 114.42059226 220.12057849 120.89052582 226.57083702 C124.21726972 229.88712592 127.54585584 233.20152159 130.87866211 236.51171875 C134.09252729 239.70391669 137.30153902 242.90091889 140.50718689 246.10136795 C141.73350483 247.3239791 142.96158695 248.54482325 144.19142151 249.76389694 C145.90838575 251.46642762 147.61907429 253.17502848 149.32836914 254.88525391 C149.84265976 255.39235397 150.35695038 255.89945404 150.88682556 256.42192078 C154.37719727 259.93302849 154.37719727 259.93302849 154.37719727 262.16113281 C152.86125977 262.93457031 152.86125977 262.93457031 151.31469727 263.72363281 C144.245449 267.80204527 139.18419901 273.46451511 136.37719727 281.16113281 C135.24791665 285.41992312 135.26027447 289.59887769 135.31469727 293.97363281 C135.32146484 295.01293945 135.32146484 295.01293945 135.32836914 296.07324219 C135.3400657 297.76924349 135.35799802 299.46519984 135.37719727 301.16113281 C129.38022496 296.18823412 123.8797878 290.81171976 118.37451172 285.30371094 C117.38510518 284.31730202 116.39549579 283.33109653 115.40570068 282.34507751 C112.73615486 279.68431005 110.06980775 277.02035995 107.40432763 274.35552025 C105.73625303 272.68815913 104.06746726 271.02151321 102.39842796 269.3551178 C96.56875792 263.53467752 90.74165461 257.7116819 84.91699219 251.88623047 C79.49731925 246.4659559 74.07208293 241.05129434 68.64423019 235.63921213 C63.97297144 230.98104027 59.30558778 226.31900954 54.64118737 221.65397024 C51.86008919 218.87261762 49.07747467 216.0928256 46.29094887 213.31690979 C43.67222188 210.70788429 41.05836654 208.09407357 38.44812012 205.47656441 C37.03765755 204.06456316 35.62226399 202.65749287 34.20671082 201.25059509 C22.27682554 189.26150602 22.27682554 189.26150602 22.12719727 179.34863281 C22.21372969 173.34905127 22.86702402 169.72020554 27.18188477 165.32128906 C32.37175805 160.53289654 36.56120564 157.91557729 43.78735352 157.90576172 C44.84615723 157.8988028 45.90496094 157.89184387 46.99584961 157.88467407 C48.13231934 157.88567108 49.26878906 157.88666809 50.43969727 157.88769531 C52.87069133 157.8673915 55.30168087 157.84654045 57.73266602 157.82519531 C61.54601857 157.80269188 65.35919174 157.78616061 69.17260742 157.78027344 C72.86613071 157.77066864 76.55885567 157.73678006 80.25219727 157.70019531 C81.37247314 157.70524078 82.49274902 157.71028625 83.64697266 157.71548462 C98.30041357 157.53619642 112.01846857 152.57269088 122.68969727 142.41113281 C127.11427721 137.71308437 130.57203259 132.97308338 133.37719727 127.16113281 C133.78969727 126.31679688 134.20219727 125.47246094 134.62719727 124.60253906 C139.64045973 112.33049031 139.18301555 96.29101299 134.63891602 83.95019531 C127.29785356 67.72258356 116.53862403 58.83746417 100.20141602 52.10644531 C94.12714046 50.07328531 88.1920922 50.00805367 81.85864258 50 C80.44764786 49.99255264 80.44764786 49.99255264 79.00814819 49.98495483 C75.90719867 49.97039283 72.80630031 49.96354108 69.70532227 49.95800781 C67.54066976 49.95225137 65.37601725 49.9464937 63.21136475 49.94073486 C58.67549401 49.93024177 54.13964092 49.92438806 49.60375977 49.92089844 C43.80922946 49.91541792 38.01493461 49.89139199 32.22047806 49.86292648 C27.74903698 49.84424606 23.27765202 49.83909162 18.80617523 49.83756256 C16.67087263 49.83454762 14.53557075 49.8265585 12.4003067 49.81337738 C9.40446869 49.79620408 6.40919817 49.79822464 3.41333008 49.8046875 C2.54233673 49.79547272 1.67134338 49.78625793 0.7739563 49.77676392 C-9.73232436 49.84728785 -18.00862352 53.35331512 -26.62280273 59.16113281 C-28.16967773 60.18207031 -28.16967773 60.18207031 -29.74780273 61.22363281 C-38.56231878 69.08387077 -42.80320167 80.64800797 -43.79425812 92.15121865 C-44.06709383 97.4426005 -44.02841774 102.73672034 -44.00756836 108.03344727 C-44.01168228 109.79576466 -44.01714797 111.55807934 -44.02384949 113.32038879 C-44.03549951 117.08909216 -44.03808602 120.85764938 -44.03349304 124.62636757 C-44.02664069 130.59035744 -44.04262204 136.55415739 -44.06188965 142.51811218 C-44.10281659 156.24585761 -44.11428991 169.97359699 -44.12541962 183.70139313 C-44.135938 196.30471422 -44.15273418 208.90794306 -44.1935153 221.51120728 C-44.2118339 227.4358362 -44.215778 233.3602451 -44.20858002 239.28489554 C-44.20705577 242.97058539 -44.21785614 246.65616548 -44.23195839 250.34182549 C-44.23595236 252.04617015 -44.23485086 253.75053582 -44.22818565 255.45487213 C-44.21976446 257.78787458 -44.22983856 260.12012179 -44.2442627 262.45307922 C-44.2449752 263.75620214 -44.24568771 265.05932505 -44.24642181 266.40193653 C-44.92814691 273.21083223 -47.28962541 279.62089792 -52.62280273 284.16113281 C-59.26200027 288.71132425 -65.63042232 290.55210344 -73.62280273 289.16113281 C-80.03020845 287.14552755 -84.42871259 284.02465957 -88.36889648 278.61425781 C-93.28095518 269.00437351 -93.05065975 259.79477801 -93.01098633 249.28735352 C-93.01505618 247.47624903 -93.02040037 245.66514702 -93.0269165 243.85404968 C-93.04055161 238.95291014 -93.03530588 234.05196083 -93.02577925 229.15081811 C-93.0181571 224.0057477 -93.02523588 218.86069303 -93.02993774 213.71562195 C-93.03539032 205.07153416 -93.02821931 196.42752335 -93.01391602 187.78344727 C-92.99761633 177.8183979 -93.00286054 167.85353296 -93.01939523 157.88848811 C-93.03305521 149.30979893 -93.03490701 140.73116494 -93.02707922 132.15246838 C-93.0224241 127.03918421 -93.02171741 121.92598638 -93.03168869 116.8127079 C-93.04042102 111.99860803 -93.0342232 107.18474317 -93.01700592 102.37066841 C-93.01307317 100.61402016 -93.01411928 98.85735179 -93.02079391 97.10071182 C-93.11265688 70.44483525 -84.57099723 46.92472372 -66.02514648 27.43066406 C-48.26849044 10.56314838 -24.60022388 0.03090061 0 0 Z " fill="#1870FD" transform="translate(455.622802734375,240.8388671875)"/>
<path d="M0 0 C87.68460111 0 87.68460111 0 106 16 C115.72630786 26.41382234 118.49862714 38.19997865 118.1875 52.09375 C117.48013042 66.83061629 112.0415747 78.60356955 101.25 88.6875 C98.09987017 91.30811734 94.84703817 93.27937889 91.234375 95.20703125 C90.25178711 95.73401611 89.26919922 96.26100098 88.25683594 96.80395508 C87.51208008 97.1986499 86.76732422 97.59334473 86 98 C86.37584229 98.5762915 86.75168457 99.15258301 87.13891602 99.74633789 C88.28345471 101.50129723 89.42798513 103.25626196 90.57250977 105.01123047 C91.91278237 107.06628225 93.2531156 109.12129449 94.59350586 111.17626953 C98.10540664 116.56061083 101.61636062 121.94556404 105.125 127.33203125 C105.78556396 128.34579834 106.44612793 129.35956543 107.12670898 130.40405273 C108.38441201 132.33430727 109.64175659 134.26479542 110.89868164 136.19555664 C111.47996826 137.08750732 112.06125488 137.97945801 112.66015625 138.8984375 C113.49184326 140.17605957 113.49184326 140.17605957 114.34033203 141.47949219 C116.495026 144.75178706 118.70607604 147.98484368 120.93139648 151.20947266 C122 153 122 153 122 155 C117.28643987 155.24850467 112.57673554 155.42920182 107.8581543 155.54931641 C106.25624158 155.59940142 104.6547815 155.66749983 103.05444336 155.75439453 C89.88784355 156.45104002 89.88784355 156.45104002 85.62060547 153.17114258 C83.75141942 150.54502872 82.39002217 147.90695011 81 145 C79.75244057 142.9666693 78.4859811 140.94484175 77.203125 138.93359375 C75.88269572 136.76988731 74.56506519 134.60447083 73.25 132.4375 C68.00595906 123.83186283 62.69346346 115.28362008 57.09863281 106.90014648 C54 102.20818945 54 102.20818945 54 100 C46.08 100 38.16 100 30 100 C30 118.15 30 136.3 30 155 C20.1 155 10.2 155 0 155 C0 103.85 0 52.7 0 0 Z " fill="#F9FBFB" transform="translate(224,603)"/>
<path d="M0 0 C13.15907769 10.01317573 23.13955857 23.62406086 25.75 40.265625 C27.47254978 59.10601317 24.04362285 76.42952602 12.81640625 92.03515625 C3.55678901 103.08891936 -9.62749833 110.29264437 -24 112 C-43.65224012 113.41665445 -60.76400481 111.99029196 -76.25 98.75 C-88.95622897 86.70828063 -95.7583851 70.86962497 -96.40429688 53.43188477 C-96.6584123 35.7764685 -91.1209614 19.99612107 -79 7 C-58.5670096 -11.95768424 -23.51831277 -15.34385648 0 0 Z " fill="#FAFCFD" transform="translate(449,648)"/>
<path d="M0 0 C15.13006123 -0.42231967 29.17540256 3.18201871 40.90625 13.03515625 C50.07799274 21.84267816 53.9775645 33.14755498 54.39216995 45.76469231 C54.44604566 49.853569 54.41072886 53.93863351 54.359375 58.02734375 C54.35189472 59.80094762 54.34621027 61.57455988 54.34222412 63.34817505 C54.32710815 67.9678313 54.28795143 72.58696721 54.2434082 77.2064209 C54.20214866 81.93962571 54.18414825 86.67291637 54.1640625 91.40625 C54.12144009 100.65781498 54.05120927 109.90886051 53.96875 119.16015625 C44.72875 119.16015625 35.48875 119.16015625 25.96875 119.16015625 C25.63875 114.87015625 25.30875 110.58015625 24.96875 106.16015625 C23.710625 107.37703125 22.4525 108.59390625 21.15625 109.84765625 C9.64094429 120.10773907 -2.95854226 120.89105405 -17.66748047 120.33496094 C-26.50791434 119.68119615 -33.81857478 115.30030997 -40.03125 109.16015625 C-48.12484257 99.50342348 -49.05885138 89.45235002 -48.03125 77.16015625 C-46.41396657 69.94532899 -42.70712234 63.90022168 -37.03125 59.16015625 C-21.78406133 49.60411878 -5.19856954 49.98271561 12.28125 50.09765625 C13.61913892 50.10269018 14.9570297 50.10724968 16.29492188 50.11132812 C19.51958085 50.12296949 22.7441396 50.13931922 25.96875 50.16015625 C25.68090212 48.06663165 25.38349701 45.97441954 25.08203125 43.8828125 C24.8351355 42.1349646 24.8351355 42.1349646 24.58325195 40.35180664 C23.59169872 35.20179652 21.31398515 32.43458955 17.59375 28.91015625 C11.44097462 24.80830599 5.18575446 24.36911787 -2.03125 25.16015625 C-6.86691536 26.41134239 -10.78054813 28.00566221 -14.46875 31.41015625 C-16.54962526 34.90467775 -16.54962526 34.90467775 -19.03125 42.16015625 C-27.61125 40.18015625 -36.19125 38.20015625 -45.03125 36.16015625 C-42.39178363 22.9628244 -37.42208682 13.94306698 -26.15625 6.41015625 C-17.79712574 1.5232836 -9.50722399 0.50231467 0 0 Z " fill="#FAFBFC" transform="translate(752.03125,638.83984375)"/>
<path d="M0 0 C9.57 0 19.14 0 29 0 C29.01458252 2.19454834 29.02916504 4.38909668 29.04418945 6.65014648 C29.09467966 13.92653574 29.16129968 21.20271423 29.23571491 28.47889614 C29.28031322 32.88752325 29.31959214 37.29606019 29.34643555 41.70483398 C29.37257425 45.96495682 29.41305015 50.2247307 29.46318626 54.48463631 C29.47978388 56.10435689 29.49134218 57.72413772 29.49761391 59.3439312 C29.46855981 71.48603606 29.46855981 71.48603606 33 83 C33.32934036 83.71405502 33.65868073 84.42811005 33.9980011 85.1638031 C35.34074124 87.62441985 36.39101199 87.97013631 39 89 C40.19625 89.53625 41.3925 90.0725 42.625 90.625 C50.50534894 93.46542152 57.86583506 92.43525435 65.51953125 89.3046875 C71.62155793 86.09511756 73.99077198 81.68508014 76.12207031 75.25512695 C78.42702528 67.46976796 78.60472599 59.89422801 78.609375 51.85546875 C78.6243971 50.34945434 78.64113251 48.84345615 78.65948486 47.33747864 C78.70271966 43.42002504 78.72305849 39.5027934 78.73822021 35.58514404 C78.75795179 31.56900133 78.79990225 27.55309294 78.83984375 23.53710938 C78.91466922 15.69144028 78.96318687 7.84595641 79 0 C88.24 0 97.48 0 107 0 C107 37.95 107 75.9 107 115 C98.09 115 89.18 115 80 115 C79.67 110.71 79.34 106.42 79 102 C78.0925 103.19625 77.185 104.3925 76.25 105.625 C69.72109847 113.09416929 59.74063158 117.24009375 49.9309082 118.203125 C47.82412699 118.30206976 45.73398063 118.32914223 43.625 118.3125 C42.88185547 118.30758545 42.13871094 118.3026709 41.37304688 118.29760742 C30.30644622 118.0624301 19.83452296 114.05908865 11.47265625 106.62890625 C0.03306636 93.97556677 -0.43550451 80.75959111 -0.29296875 64.6484375 C-0.28736474 62.7794326 -0.28309845 60.91042326 -0.28010559 59.04141235 C-0.26872014 54.1521969 -0.23930802 49.26325415 -0.20599365 44.37414551 C-0.17515608 39.37316577 -0.16157115 34.37214142 -0.14648438 29.37109375 C-0.11443154 19.58059084 -0.06171592 9.7903609 0 0 Z " fill="#FBFDFD" transform="translate(491,642)"/>
<path d="M0 0 C9.57 0 19.14 0 29 0 C29 9.57 29 19.14 29 29 C38.57 29 48.14 29 58 29 C58 36.92 58 44.84 58 53 C48.43 53 38.86 53 29 53 C29.06770186 60.30479691 29.13820891 67.60863084 29.2355423 74.91294098 C29.28007651 78.31490299 29.31953701 81.71674544 29.34643555 85.11889648 C29.37758682 89.02873986 29.43237176 92.93808551 29.48828125 96.84765625 C29.49467117 98.05833267 29.5010611 99.26900909 29.50764465 100.51637268 C29.61542767 106.72745491 29.83784428 111.57679651 33 117 C39.94868897 122.12879424 48.9618283 120.02072022 57 119 C57.33931227 121.66602496 57.67157176 124.33263014 58 127 C58.09539062 127.74378906 58.19078125 128.48757813 58.2890625 129.25390625 C58.89227676 134.20888051 59.09075591 139.00842496 59 144 C45.87703348 147.06865149 29.76664115 148.90398566 17.41015625 142.5390625 C8.03448298 136.55200372 3.08182719 129.47782107 0.42312622 118.5844574 C-0.50380857 112.92273434 -0.24039214 107.15862121 -0.1953125 101.4375 C-0.19157591 100.0364604 -0.18873199 98.63541816 -0.18673706 97.234375 C-0.1791514 93.57160044 -0.15954737 89.90898798 -0.1373291 86.24627686 C-0.11676062 82.49884228 -0.10771197 78.75138117 -0.09765625 75.00390625 C-0.0762959 67.66918886 -0.04115603 60.33463792 0 53 C-6.6 53 -13.2 53 -20 53 C-20 45.08 -20 37.16 -20 29 C-13.4 29 -6.8 29 0 29 C0 19.43 0 9.86 0 0 Z " fill="#FBFDFD" transform="translate(633,613)"/>
<path d="M0 0 C8.27854963 5.90080079 13.81363982 12.98245322 16 23 C17.16429426 36.31149675 16.62347004 47.8628984 7.75 58.4375 C2.47689618 63.91943962 -3.46112958 67.66439867 -11.22265625 68.23828125 C-21.588518 68.4386387 -29.47955801 67.57051181 -37.375 60.3125 C-45.22874605 51.76205068 -47.54402218 40.53208693 -47.3125 29.1875 C-46.42910497 20.17687071 -43.60481544 11.40069311 -37 5 C-26.64174361 -3.31264023 -12.21865393 -6.83896138 0 0 Z " fill="#141822" transform="translate(429,667)"/>
<path d="M0 0 C8.77615949 5.16244676 14.63808097 11.43442425 17.375 21.4375 C18.5410911 31.68682703 17.89732111 40.92348307 11.8671875 49.609375 C6.1001563 56.74439965 -1.34806406 62.36191322 -10.625 63.4375 C-21.09806605 64.44695215 -29.59368745 61.80042908 -37.80859375 55.1953125 C-44.87384333 48.35797419 -48.6735522 39.70372993 -49 29.9375 C-48.6719755 19.27670389 -44.11107731 11.40023048 -36.5625 4.046875 C-26.70285445 -4.14299187 -11.44793457 -5.45554297 0 0 Z " fill="#FDD105" transform="translate(638.625,502.5625)"/>
<path d="M0 0 C9.3740625 -0.12375 9.3740625 -0.12375 18.9375 -0.25 C20.89163818 -0.28641602 22.84577637 -0.32283203 24.85913086 -0.36035156 C26.43602404 -0.37205158 28.01292946 -0.38224028 29.58984375 -0.390625 C30.38588013 -0.41108887 31.1819165 -0.43155273 32.0020752 -0.45263672 C39.25551158 -0.45707104 44.71522345 1.95613904 50.8125 5.75 C55.63540065 10.71069782 57.72695971 16.83273265 58.3125 23.625 C58.18599524 29.8007323 56.22176774 35.43314918 52.1640625 40.12109375 C45.51751167 46.24559749 39.45139296 47.30325243 30.6640625 47.1953125 C29.88377686 47.19329834 29.10349121 47.19128418 28.29956055 47.18920898 C25.40797985 47.17881065 22.5164835 47.15088841 19.625 47.125 C9.910625 47.063125 9.910625 47.063125 0 47 C0 31.49 0 15.98 0 0 Z " fill="#131721" transform="translate(254,630)"/>
<path d="M0 0 C1.60154021 0.02009217 3.20310471 0.03833815 4.8046875 0.0546875 C8.70373081 0.09847729 12.60159466 0.16735279 16.5 0.25 C16.52717843 1.99470436 16.54647652 3.73953253 16.5625 5.484375 C16.57410156 6.45600586 16.58570313 7.42763672 16.59765625 8.42871094 C16.38017214 14.71182679 14.40695462 18.73818474 9.875 23.0625 C1.18796834 29.9305864 -8.80215742 30.43618565 -19.5 29.25 C-23.81598529 27.75387386 -26.47552969 25.78670547 -29 22 C-29.99496602 16.5276869 -30.33220921 12.08779534 -28 6.9375 C-20.20061472 -1.44683918 -10.54481494 -0.23027408 0 0 Z " fill="#141821" transform="translate(761.5,707.75)"/>
<path d="M0 0 C-0.50789062 0.35191406 -1.01578125 0.70382812 -1.5390625 1.06640625 C-8.57431294 6.11228812 -15.60216753 12.16758139 -17.42456055 21.07519531 C-17.73526078 23.33961232 -17.97727063 25.5991224 -18.1875 27.875 C-18.26935547 28.65875 -18.35121094 29.4425 -18.43554688 30.25 C-18.63411675 32.16561529 -18.81851747 34.08269042 -19 36 C-19.66 35.67 -20.32 35.34 -21 35 C-21.21959912 28.96102409 -20.44600313 23.84343733 -19 18 C-18.51553793 15.68203531 -18.03584967 13.3632274 -17.5625 11.04296875 C-16.94672729 8.80651648 -16.21934381 6.9760288 -15 5 C-12.375 4.25 -12.375 4.25 -10 4 C-10 3.01 -10 2.02 -10 1 C-6.41631413 -0.79184293 -3.82245883 -1.27415294 0 0 Z " fill="#155CF0" transform="translate(609,503)"/>
<path d="M0 0 C0.33 0 0.66 0 1 0 C1 4.95 1 9.9 1 15 C10.24 15 19.48 15 29 15 C29 15.33 29 15.66 29 16 C24.8882744 16.02465746 20.77657722 16.04283959 16.66479492 16.05493164 C15.26504772 16.0599708 13.8653058 16.06680216 12.46557617 16.07543945 C10.45754223 16.0875232 8.44947043 16.09269807 6.44140625 16.09765625 C5.23170166 16.10289307 4.02199707 16.10812988 2.77563477 16.11352539 C0 16 0 16 -1 15 C-1.23192865 13.48530552 -1.41215238 11.96245438 -1.5625 10.4375 C-1.64628906 9.61121094 -1.73007812 8.78492188 -1.81640625 7.93359375 C-1.87699219 7.29550781 -1.93757812 6.65742187 -2 6 C-3.32 7.32 -4.64 8.64 -6 10 C-6.66 9.67 -7.32 9.34 -8 9 C-6.69088122 7.49704815 -5.37761608 5.99770689 -4.0625 4.5 C-3.33160156 3.6646875 -2.60070312 2.829375 -1.84765625 1.96875 C-1.23792969 1.3190625 -0.62820313 0.669375 0 0 Z " fill="#090A0E" transform="translate(570,743)"/>
<path d="M0 0 C7.59 0 15.18 0 23 0 C19.70718011 3.29281989 18.70808888 3.38528746 14.24414062 3.41015625 C13.52419922 3.39855469 12.80425781 3.38695312 12.0625 3.375 C11.34642578 3.38660156 10.63035156 3.39820313 9.89257812 3.41015625 C5.16921073 3.383891 3.95914059 2.96935544 0 0 Z " fill="#1F2127" transform="translate(731,759)"/>
<path d="M0 0 C0.99 0 1.98 0 3 0 C3.125 6.75 3.125 6.75 2 9 C-9.55 9 -21.1 9 -33 9 C-33 8.67 -33 8.34 -33 8 C-22.11 8 -11.22 8 0 8 C0 5.36 0 2.72 0 0 Z " fill="#1E212B" transform="translate(775,679)"/>
<path d="M0 0 C2 2 2 2 2.265625 4.93359375 C2.26046875 6.08988281 2.2553125 7.24617187 2.25 8.4375 C2.25515625 9.59121094 2.2603125 10.74492188 2.265625 11.93359375 C2 15 2 15 0 18 C-1.03974406 14.5836981 -1.13374875 11.43573988 -1.125 7.875 C-1.12886719 6.29332031 -1.12886719 6.29332031 -1.1328125 4.6796875 C-1 2 -1 2 0 0 Z " fill="#2B2D33" transform="translate(383,691)"/>
<path d="M0 0 C0.9796875 -0.00257813 1.959375 -0.00515625 2.96875 -0.0078125 C5.5 0.125 5.5 0.125 7.5 1.125 C7.17 1.785 6.84 2.445 6.5 3.125 C4.54196493 3.17889087 2.58351091 3.21774217 0.625 3.25 C-0.46554687 3.27320313 -1.55609375 3.29640625 -2.6796875 3.3203125 C-5.5 3.125 -5.5 3.125 -7.5 1.125 C-4.89080172 -0.17959914 -2.91057385 -0.0076594 0 0 Z " fill="#23262C" transform="translate(755.5,662.875)"/>
<path d="M0 0 C2 2 2 2 2.265625 3.875 C2.26046875 4.57625 2.2553125 5.2775 2.25 6 C2.25515625 6.70125 2.2603125 7.4025 2.265625 8.125 C2 10 2 10 0 12 C-1 11 -1 11 -1.1328125 8.75 C-1.13023437 7.8425 -1.12765625 6.935 -1.125 6 C-1.12757813 5.0925 -1.13015625 4.185 -1.1328125 3.25 C-1 1 -1 1 0 0 Z " fill="#26292E" transform="translate(310,648)"/>
<path d="M0 0 C5.46167045 5.07155113 8.39686522 9.46081528 9 17 C5.8086921 15.40434605 4.88215291 12.15338879 3.375 9.0625 C3.05015625 8.41603516 2.7253125 7.76957031 2.390625 7.10351562 C0 2.26702009 0 2.26702009 0 0 Z " fill="#1A7AF5" transform="translate(584,311)"/>
<path d="M0 0 C0.33 1.32 0.66 2.64 1 4 C-3.455 6.97 -3.455 6.97 -8 10 C-5.77502475 5.55004949 -3.55366005 3.39915309 0 0 Z " fill="#0F1218" transform="translate(332,684)"/>
<path d="M0 0 C0 0.33 0 0.66 0 1 C-5.94 1.495 -5.94 1.495 -12 2 C-12.33 2.99 -12.66 3.98 -13 5 C-14.32 4.67 -15.64 4.34 -17 4 C-11.59696035 -0.67289916 -6.95230941 -0.44534366 0 0 Z " fill="#0B0D12" transform="translate(752,709)"/>
<path d="M0 0 C2.32590854 3.63423209 2.16265833 6.77088331 2 11 C1.01 11.33 0.02 11.66 -1 12 C-1.125 5.25 -1.125 5.25 0 3 C-0.66 3 -1.32 3 -2 3 C-1 1 -1 1 0 0 Z " fill="#1E2027" transform="translate(443,686)"/>
<path d="M0 0 C1 3 1 3 -0.25 6 C-1.69149811 8.47113961 -2.85630917 10.16255071 -5 12 C-5 7.86021808 -4.67617664 7.01426496 -2.5 3.75 C-2.0359375 3.04359375 -1.571875 2.3371875 -1.09375 1.609375 C-0.7328125 1.07828125 -0.371875 0.5471875 0 0 Z " fill="#1977F2" transform="translate(590,367)"/>
<path d="M0 0 C5.05663427 3.42066436 7.83507897 7.91002391 11 13 C7.38502261 11.52841629 5.59408489 9.58537669 3.25 6.5 C2.63640625 5.7059375 2.0228125 4.911875 1.390625 4.09375 C0 2 0 2 0 0 Z " fill="#177CEE" transform="translate(614,276)"/>
<path d="M0 0 C1.14926266 0.95421808 2.29430541 1.91352045 3.4375 2.875 C4.07558594 3.40867187 4.71367187 3.94234375 5.37109375 4.4921875 C7 6 7 6 8 8 C7.01 8 6.02 8 5 8 C4.34 7.34 3.68 6.68 3 6 C2.01 5.34 1.02 4.68 0 4 C0 2.68 0 1.36 0 0 Z " fill="#161013" transform="translate(488,440)"/>
<path d="M0 0 C0 0.99 0 1.98 0 3 C-6.96428571 5.27678571 -6.96428571 5.27678571 -11 4 C-9.5437455 3.32880451 -8.08492133 2.66318193 -6.625 2 C-5.81289063 1.62875 -5.00078125 1.2575 -4.1640625 0.875 C-2 0 -2 0 0 0 Z " fill="#100F26" transform="translate(642,561)"/>
<path d="M0 0 C-3.83325617 2.70582788 -6.32538149 3.32613618 -11 3 C-7.83370093 -0.83288835 -4.68080329 -1.56026776 0 0 Z " fill="#0D59F8" transform="translate(609,503)"/>
<path d="M0 0 C4.875 4.75 4.875 4.75 6 7 C4.35 7 2.7 7 1 7 C0 2.25 0 2.25 0 0 Z " fill="#15121A" transform="translate(480,431)"/>
</svg>
